<svg width="18.000000" height="20.000000" viewBox="0 0 18 20" fill="none" xmlns="http://www.w3.org/2000/svg" xmlns:xlink="http://www.w3.org/1999/xlink">
	<desc>
			Created with Pixso.
	</desc>
	<defs/>
	<path id="Vector" d="M16 2L15 2L15 0L13 0L13 2L5 2L5 0L3 0L3 2L2 2C0.890015 2 0.0100098 2.8999 0.0100098 4L0 18C0 19.1001 0.890015 20 2 20L16 20C17.1 20 18 19.1001 18 18L18 4C18 2.8999 17.1 2 16 2ZM16 18L2 18L2 8L16 8L16 18ZM16 6L2 6L2 4L16 4L16 6ZM6 12L4 12L4 10L6 10L6 12ZM10 12L8 12L8 10L10 10L10 12ZM14 12L12 12L12 10L14 10L14 12ZM6 16L4 16L4 14L6 14L6 16ZM10 16L8 16L8 14L10 14L10 16ZM14 16L12 16L12 14L14 14L14 16Z" fill="#000000" fill-opacity="1.000000" fill-rule="nonzero"/>
</svg>
