<svg width="20.000000" height="20.000000" viewBox="0 0 20 20" fill="none" xmlns="http://www.w3.org/2000/svg" xmlns:xlink="http://www.w3.org/1999/xlink">
	<desc>
			Created with Pixso.
	</desc>
	<defs/>
	<path id="Vector" d="M10 0C4.5 0 0 4.5 0 10C0 15.5 4.5 20 10 20C15.5 20 20 15.5 20 10C20 4.5 15.5 0 10 0ZM10 18C5.59 18 2 14.4099 2 10C2 5.59009 5.59 2 10 2C14.41 2 18 5.59009 18 10C18 14.4099 14.41 18 10 18ZM10.5 5L9 5L9 11L14.2 14.2L15 12.8999L10.5 10.2L10.5 5Z" fill="#49454E" fill-opacity="1.000000" fill-rule="nonzero"/>
</svg>
