<svg width="25.176445" height="25.365723" viewBox="0 0 25.1764 25.3657" fill="none" xmlns="http://www.w3.org/2000/svg" xmlns:xlink="http://www.w3.org/1999/xlink">
	<desc>
			Created with Pixso.
	</desc>
	<defs/>
	<path id="Vector" d="M12.5882 25.3657C19.5406 25.3657 25.1764 19.6875 25.1764 12.6829C25.1764 5.67822 19.5406 0 12.5882 0C5.63593 0 0 5.67822 0 12.6829C0 19.6875 5.63593 25.3657 12.5882 25.3657ZM14.5312 9.79907C15.6042 8.71802 15.6042 6.96509 14.5312 5.88403C13.4581 4.80298 11.7184 4.80298 10.6453 5.88403C9.57226 6.96509 9.57226 8.71802 10.6453 9.79907L12.5882 11.7568L14.5312 9.79907ZM15.4505 14.6406C16.5235 15.7217 18.2633 15.7217 19.3364 14.6406C20.4094 13.5593 20.4094 11.8064 19.3364 10.7253C18.2633 9.64429 16.5235 9.64429 15.4505 10.7253L13.5075 12.6829L15.4505 14.6406ZM14.5312 19.4819C15.6042 18.4006 15.6042 16.6479 14.5312 15.5667L12.5882 13.6091L10.6453 15.5667C9.57226 16.6479 9.57226 18.4006 10.6453 19.4819C11.7184 20.563 13.4581 20.563 14.5312 19.4819ZM5.84008 14.6406C4.76703 13.5593 4.76703 11.8064 5.84008 10.7253C6.91319 9.64429 8.65294 9.64429 9.72602 10.7253L11.669 12.6829L9.72602 14.6406C8.65294 15.7217 6.91319 15.7217 5.84008 14.6406Z" fill="#7F57F1" fill-opacity="1.000000" fill-rule="evenodd"/>
</svg>
