<svg width="22.000000" height="16.000000" viewBox="0 0 22 16" fill="none" xmlns="http://www.w3.org/2000/svg" xmlns:xlink="http://www.w3.org/1999/xlink">
	<desc>
			Created with Pixso.
	</desc>
	<defs/>
	<path id="Vector" d="M8 8C10.21 8 12 6.20996 12 4C12 1.79004 10.21 0 8 0C5.79001 0 4 1.79004 4 4C4 6.20996 5.79001 8 8 8ZM18 4C18 6.20996 16.21 8 14 8C13.53 8 13.09 7.8999 12.67 7.76001C13.5 6.72998 14 5.41992 14 4C14 2.58008 13.5 1.27002 12.67 0.23999C13.09 0.100098 13.53 0 14 0C16.21 0 18 1.79004 18 4ZM8 2C9.10001 2 10 2.8999 10 4C10 5.1001 9.10001 6 8 6C6.89999 6 6 5.1001 6 4C6 2.8999 6.89999 2 8 2ZM0 13C0 10.3401 5.32999 9 8 9C10.67 9 16 10.3401 16 13L16 16L0 16L0 13ZM18 13C18 11.3201 17.04 10.0601 15.67 9.12988C18.43 9.53003 22 10.8201 22 13L22 16L18 16L18 13ZM2 13.01L2 14L14 14L14 13C13.8 12.29 10.7 11 8 11C5.29999 11 2.20001 12.29 2 13.01Z" fill="#49454E" fill-opacity="1.000000" fill-rule="evenodd"/>
</svg>
