<svg width="16.000000" height="19.500000" viewBox="0 0 16 19.5" fill="none" xmlns="http://www.w3.org/2000/svg" xmlns:xlink="http://www.w3.org/1999/xlink">
	<desc>
			Created with Pixso.
	</desc>
	<defs/>
	<path id="Vector" d="M8 19.5C9.10001 19.5 10 18.6001 10 17.5L6 17.5C6 18.6001 6.89999 19.5 8 19.5ZM14 13.5L14 8.5C14 5.42993 12.37 2.86011 9.5 2.17993L9.5 1.5C9.5 0.669922 8.82999 0 8 0C7.17001 0 6.5 0.669922 6.5 1.5L6.5 2.17993C3.64001 2.86011 2 5.41992 2 8.5L2 13.5L0 15.5L0 16.5L16 16.5L16 15.5L14 13.5ZM12 14.5L4 14.5L4 8.5C4 6.02002 5.51001 4 8 4C10.49 4 12 6.02002 12 8.5L12 14.5Z" fill="#000000" fill-opacity="1.000000" fill-rule="nonzero"/>
</svg>
